<?xml version="1.0" encoding="UTF-8"?>
<svg version="1.1" xmlns="http://www.w3.org/2000/svg" width="512" height="512">
<path d="M0 0 C7.33390464 4.84214292 13.34960496 11.09141783 19.5 17.3046875 C20.58671789 18.39514316 21.67388384 19.48515247 22.76147461 20.57473755 C25.60007218 23.42091149 28.43260756 26.27304275 31.26385498 29.12652588 C34.16309929 32.04635895 37.06813025 34.96042257 39.97265625 37.875 C45.65406546 43.57775309 51.32907323 49.28682294 57 55 C57.33782501 54.18215027 57.67565002 53.36430054 58.02371216 52.52166748 C58.46979828 51.44556213 58.9158844 50.36945679 59.37548828 49.26074219 C60.0369133 47.66271759 60.0369133 47.66271759 60.71170044 46.03240967 C66.53098535 32.33493094 73.16539655 20.71416613 87 14 C97.53391558 9.9669346 108.57949905 10.05688844 119.00390625 14.19140625 C130.6565784 19.54376004 137.50701296 26.9452864 142 39 C145.4018376 51.47842199 143.67815361 61.8397199 137.64453125 73.12890625 C136.11467396 75.79979725 134.54295827 78.43651786 132.9375 81.0625 C127.65788615 89.72825362 123.46723826 98.88440615 122 109 C121.88118973 109.78747116 121.76237946 110.57494232 121.63996887 111.38627625 C121.28080939 115.68112532 121.23479906 118.78497304 123.57731628 122.50454712 C125.90582907 125.07804916 128.34625824 127.42610824 130.90625 129.76953125 C131.8195105 130.65299728 132.732771 131.53646332 133.67370605 132.44670105 C136.09897984 134.78803875 138.54334146 137.10433309 141.0032959 139.40887451 C174.55208076 170.87129216 174.55208076 170.87129216 175.34735107 195.10620117 C175.41683065 198.65937155 175.41599087 202.20951541 175.39111328 205.76318359 C175.37502959 208.49497407 175.39103256 211.22528553 175.41015625 213.95703125 C175.44595049 242.32251415 162.53975685 256.58276279 143.41796875 275.85546875 C142.77924646 276.49951471 142.14052418 277.14356068 141.48244667 277.80712318 C138.10662312 281.20946122 134.72727607 284.60825863 131.34545898 288.00463867 C128.57178376 290.79167669 125.80557417 293.58581551 123.0456543 296.38647461 C119.68135179 299.80039239 116.30466074 303.20159019 112.91900063 306.59432411 C111.64347001 307.87650881 110.3721483 309.1628967 109.1054287 310.45378685 C93.50160687 326.33847008 78.9356302 333.1541571 56.51953125 333.49609375 C53.1091627 333.51011163 49.70053587 333.49764926 46.2902832 333.46655273 C42.80827453 333.4374647 39.32778286 333.44601072 35.84570312 333.45898438 C16.02558661 333.44119014 -0.33005617 331.60677912 -15.28515625 317.3515625 C-15.91070908 316.76115677 -16.5362619 316.17075104 -17.18077087 315.56245422 C-27.14352601 306.08961432 -36.86325839 296.36104549 -46.59155273 286.64868164 C-49.49941638 283.74635679 -52.41650218 280.853482 -55.33567142 277.9625349 C-57.61342049 275.70349161 -59.88435403 273.43768787 -62.15353203 271.17003822 C-63.22619639 270.10036825 -64.30132209 269.0331598 -65.37910652 267.96864891 C-75.95542814 257.51366759 -85.01758162 246.97447997 -85.4375 231.4375 C-85.03963949 220.59259249 -81.66426536 211.82254823 -74.04296875 203.98828125 C-69.66169122 199.99235509 -65.18659793 196 -59 196 C-59.7425 194.2984375 -59.7425 194.2984375 -60.5 192.5625 C-63.66993156 182.96170249 -63.47211781 170.78014392 -59.44921875 161.4921875 C-54.65130461 153.24132706 -47.74228905 146.88195507 -39 143 C-38.01 143 -37.02 143 -36 143 C-36.474375 141.906875 -36.94875 140.81375 -37.4375 139.6875 C-41.14225644 129.66701591 -40.72514221 118.73220561 -36.4375 108.9375 C-32.21795762 101.30138785 -25.98618677 94.58563488 -18 91 C-17.34 91 -16.68 91 -16 91 C-20.18017882 85.91589388 -24.70434383 81.25085377 -29.4140625 76.6640625 C-29.99500671 76.09572693 -30.57595093 75.52739136 -31.17449951 74.9418335 C-33.59973871 72.570549 -36.02587576 70.20067887 -38.47167969 67.85058594 C-48.73930459 57.96587726 -56.80945884 48.54089961 -57.25 33.5625 C-56.95347794 22.77650989 -53.3473235 13.84053721 -46.0546875 5.890625 C-33.89183563 -5.30104858 -14.6092551 -8.13074614 0 0 Z M-32.4375 24.625 C-34.50668898 29.0944482 -35.00423452 33.15604523 -34 38 C-30.6915274 43.77347937 -26.11755346 48.13749333 -21.40771484 52.78759766 C-20.54227554 53.65011642 -19.67683624 54.51263519 -18.78517151 55.40129089 C-16.91088511 57.26798266 -15.03490793 59.13276569 -13.15577316 60.99455643 C-10.1837405 63.93943511 -7.2194491 66.89202519 -4.2562561 69.84579468 C2.03158143 76.11148476 8.32785762 82.36866365 14.625 88.625 C21.43108083 95.38701201 28.2356781 102.15047821 35.03057134 108.92373502 C37.97597902 111.85918571 40.9261922 114.78969281 43.88019204 117.71649575 C46.14623017 119.96411036 48.40583299 122.21818043 50.66650391 124.47119141 C51.4852449 125.27959976 52.3039859 126.08800812 53.14753723 126.9209137 C53.89336563 127.6666011 54.63919403 128.41228851 55.40762329 129.18057251 C56.05690104 129.82540903 56.70617878 130.47024555 57.37513161 131.13462257 C60.05499415 134.2111518 60.94165215 136.3581737 61.3125 140.4375 C60.97749464 144.25656107 60.37658622 146.02926723 58 149 C54.31256593 151.25363168 51.61141861 151.38905925 47.40411377 150.78973389 C42.63196502 149.22211773 39.62345343 145.50750567 36.2734375 141.9140625 C35.48152008 141.10133881 34.68960266 140.28861511 33.87368774 139.45126343 C31.35428196 136.86084997 28.86330101 134.24527826 26.375 131.625 C23.87625866 129.01548177 21.37179775 126.41216327 18.85488892 123.82015991 C17.29300927 122.20957917 15.74194252 120.58842067 14.20346069 118.95547485 C9.55192895 114.13308154 5.51363747 110.3972001 -1.44140625 109.78515625 C-6.53298529 110.450906 -10.0325206 111.50483957 -14 115 C-17.03280806 119.24593128 -17.41605284 123.18569768 -17.69140625 128.2421875 C-15.81309303 135.7342165 -8.57712968 141.68766656 -3.23046875 146.9296875 C-2.50886063 147.64609406 -1.7872525 148.36250061 -1.04377747 149.10061646 C1.23688179 151.36361893 3.52418714 153.6197392 5.8125 155.875 C8.11772717 158.15259808 10.42145885 160.4316607 12.72233582 162.71365356 C14.14855633 164.12762131 15.5774416 165.53890728 17.00923157 166.94723511 C17.97109627 167.89930344 17.97109627 167.89930344 18.95239258 168.87060547 C19.51831619 169.42827606 20.08423981 169.98594666 20.66731262 170.56051636 C23.52004758 173.64185815 23.40607615 176.70689916 23.328125 180.734375 C23 183 23 183 21.125 186.0625 C16.6148261 188.85880782 13.15015263 189.11176704 8 188 C6.03125 186.68774414 6.03125 186.68774414 4.1875 184.97265625 C3.50260498 184.33956543 2.81770996 183.70647461 2.11206055 183.05419922 C-2.09853766 178.9589532 -6.19941823 174.76161353 -10.26367188 170.52148438 C-10.93333984 169.83763672 -11.60300781 169.15378906 -12.29296875 168.44921875 C-12.8861792 167.83393311 -13.47938965 167.21864746 -14.09057617 166.5847168 C-18.36286269 163.03895388 -22.56985704 162.52367167 -28 163 C-33.67549553 165.04317839 -37.29873721 168.59747441 -40 174 C-40.38945764 179.84186457 -39.92015555 182.79913609 -37 188 C-34.77493409 190.58633174 -34.77493409 190.58633174 -32.18359375 193.00390625 C-31.25482422 193.90947266 -30.32605469 194.81503906 -29.36914062 195.74804688 C-28.39280002 196.68710635 -27.41557763 197.62524986 -26.4375 198.5625 C-24.51056204 200.40929464 -22.59474845 202.26556362 -20.68359375 204.12890625 C-19.83337646 204.94431885 -18.98315918 205.75973145 -18.10717773 206.59985352 C-14.96032065 210.18422983 -13.97756699 212.74375125 -14.0625 217.5 C-15.22577947 221.84291002 -16.28979918 223.44923694 -20 226 C-23.27028224 227.04412626 -25.71436666 226.99274504 -29 226 C-32.10457181 223.88739699 -34.84116917 221.59329473 -37.6171875 219.06640625 C-41.20433861 215.95558177 -44.26800594 215.70339754 -48.9453125 215.7890625 C-53.67555566 216.27467682 -56.45841114 218.48248176 -59.8125 221.6875 C-62.39137126 225.5926479 -63.29005909 228.34999024 -63 233 C-59.81153129 244.15964049 -48.7933509 252.38326455 -40.8203125 260.3828125 C-40.24220699 260.96374538 -39.66410149 261.54467827 -39.06847763 262.14321518 C-36.0133476 265.21323997 -32.95542802 268.28045222 -29.89501953 271.34521484 C-26.75594188 274.48978573 -23.62626261 277.6435393 -20.49867439 280.79953194 C-18.07062946 283.24629477 -15.6358106 285.6862324 -13.1991539 288.12441635 C-12.04296485 289.28360804 -10.88924786 290.44527141 -9.73819351 291.60956192 C2.23074208 303.70634562 11.99471264 311.01765541 29.60955811 311.16459656 C30.81602997 311.16626579 30.81602997 311.16626579 32.046875 311.16796875 C32.89872375 311.17129715 33.75057251 311.17462555 34.62823486 311.17805481 C36.42337509 311.18309457 38.21852459 311.18546405 40.01367188 311.18530273 C42.72802578 311.18748235 45.44196817 311.20565077 48.15625 311.22460938 C67.30892655 311.2953119 78.75203923 308.55624559 92.69840145 294.86968136 C94.66682805 292.91500464 96.6250215 290.95047783 98.58203125 288.984375 C99.96772921 287.60392196 101.35394363 286.22398717 102.74064636 284.84454346 C105.63253024 281.96302067 108.51688098 279.0742119 111.39624023 276.18017578 C115.07043091 272.4887846 118.76460634 268.81815739 122.46492481 265.1529808 C125.32813871 262.31181607 128.1794685 259.45895164 131.02753258 256.60260773 C132.38437647 255.24494884 133.745023 253.89107844 135.10965919 252.54125214 C147.63450626 240.13164129 153.11993917 231.32963383 153.234375 213.31835938 C153.23630859 212.57739014 153.23824219 211.8364209 153.24023438 211.07299805 C153.24989549 208.83669191 153.28093284 206.60132356 153.3125 204.36523438 C153.42470362 190.10483023 150.81860364 181.03391741 140.87060452 170.61612892 C139.74065204 169.4740913 138.60541208 168.33726751 137.46568298 167.20498657 C136.8352172 166.57069524 136.20475142 165.93640391 135.55518061 165.28289163 C133.46198125 163.17945377 131.36179068 161.08314628 129.26147461 158.98681641 C127.75107384 157.47206433 126.24109024 155.95689618 124.73149109 154.44134521 C120.64549482 150.34199867 116.55315816 146.24903878 112.45921397 142.1576314 C109.04008595 138.73957494 105.62394311 135.31854259 102.20774561 131.89755762 C94.1518267 123.83055909 86.09060987 115.76888179 78.02612305 107.71044922 C69.70466748 99.39504459 61.39245664 91.07047957 53.08466715 82.74142325 C45.94767892 75.58683751 38.80491694 68.43805243 31.65749556 61.2938894 C27.39010258 57.02831102 23.12497526 52.76052726 18.86543083 48.48711014 C14.86413926 44.47327365 10.85570173 40.46671526 6.84160042 36.46569061 C5.36880735 34.99526945 3.89857696 33.5222764 2.43109131 32.04655838 C0.43002112 30.0350723 -1.58003721 28.03302207 -3.59266663 26.03311157 C-4.17321574 25.44518818 -4.75376485 24.85726478 -5.35190636 24.25152552 C-9.73411452 19.92750916 -12.78491046 18.2143635 -18.875 17.625 C-24.8000006 17.80386794 -28.49110695 20.37503825 -32.4375 24.625 Z M90 39 C84.16295394 46.60032039 80.6772275 55.71732509 78.4831543 64.99780273 C78 67 78 67 77.24536133 69.06665039 C76.51411788 71.73964775 76.38018145 73.2778745 77 76 C80.30839361 80.55796394 84.31198854 84.2535545 88.4375 88.0625 C89.55239218 89.1271937 90.66505077 90.19423153 91.77539062 91.26367188 C94.49182922 93.87028594 97.23685391 96.44298784 100 99 C101.80442914 95.47559014 103.21377755 91.88900246 104.625 88.1875 C106.81380726 82.59103924 109.2877502 77.23489677 112.125 71.9375 C112.44936035 71.33123779 112.7737207 70.72497559 113.10791016 70.1003418 C114.68170342 67.22144195 116.34993286 64.47886342 118.1796875 61.75390625 C121.34118684 56.97095125 121.66059002 52.58245091 121 47 C119.12219649 41.59192589 115.54862574 38.29049522 111 35 C103.29569305 32.43189768 95.88852934 33.19734505 90 39 Z " fill="#d4d4d8" transform="translate(214,137)"/>
<path d="M0 0 C2.78220203 1.33357428 4.17608563 0.91446064 7.078125 -0.00390625 C8.34220621 -0.66515881 9.59217915 -1.35394986 10.828125 -2.06640625 C18.33157938 -5.50339123 27.97071868 -5.26481932 35.89453125 -3.30859375 C38.13601336 -2.38081507 40.05239054 -1.33510318 42.078125 -0.00390625 C42.77164063 0.43179688 43.46515625 0.8675 44.1796875 1.31640625 C52.63088667 7.10880119 57.84357569 14.99083646 60.078125 24.99609375 C61.58282218 39.07576022 58.15246326 52.3510322 50.078125 63.99609375 C46.36047549 68.59416656 42.2677441 72.82995412 38.078125 76.99609375 C37.40910156 77.66511719 36.74007812 78.33414063 36.05078125 79.0234375 C31.90269106 82.88107061 27.26306929 86.02216183 22.578125 89.18359375 C21.65229614 89.80850708 21.65229614 89.80850708 20.70776367 90.44604492 C18.85272456 91.66844489 16.975414 92.84048113 15.078125 93.99609375 C14.44003906 94.40037598 13.80195313 94.8046582 13.14453125 95.22119141 C8.72680014 97.77013478 5.38670234 98.53885705 0.32763672 97.67236328 C-3.69661869 96.46255348 -6.93516288 94.32035797 -10.359375 91.93359375 C-11.09873291 91.43480713 -11.83809082 90.93602051 -12.59985352 90.42211914 C-30.7245892 78.06028287 -44.57941517 64.38705373 -51.53515625 43.12109375 C-53.6857981 31.30342541 -52.06984534 19.7232148 -45.234375 9.74609375 C-34.39357828 -3.55231432 -15.27131743 -10.13510095 0 0 Z M-27.734375 23.99609375 C-30.22673198 28.19374762 -30.31160822 32.16340176 -29.921875 36.99609375 C-27.85910334 44.50160027 -24.02917707 50.21622515 -18.921875 55.99609375 C-18.33664063 56.66382813 -17.75140625 57.3315625 -17.1484375 58.01953125 C-13.22023568 62.21292813 -8.88086028 65.70548701 -4.234375 69.05859375 C-3.68765137 69.46529297 -3.14092773 69.87199219 -2.57763672 70.29101562 C-0.12505708 71.99521152 1.56299031 72.99769853 4.5859375 72.98828125 C19.15407059 67.18842889 31.35395532 53.94757802 37.453125 39.80859375 C38.87406289 33.41437323 38.23053794 28.75740016 35.078125 22.99609375 C31.95757976 20.10388109 29.5880461 18.16767569 25.328125 17.68359375 C21.13030966 18.08722984 19.34550147 19.34135037 16.078125 21.99609375 C15.12775454 23.21533652 14.19070701 24.4450542 13.265625 25.68359375 C10.88937389 28.59137471 9.24443974 29.57164919 5.515625 30.12109375 C1.4716535 30.24281864 -0.78956251 29.70512076 -3.921875 26.99609375 C-5.47016868 25.24109071 -6.95925151 23.46595503 -8.39453125 21.6171875 C-10.90776804 18.94968554 -13.19716969 18.09062053 -16.796875 17.62109375 C-21.57521095 18.19449406 -24.5462009 20.47810853 -27.734375 23.99609375 Z " fill="#d4d4d8" transform="translate(251.921875,52.00390625)"/>
</svg>
