<?xml version="1.0" encoding="UTF-8"?>
<svg xmlns="http://www.w3.org/2000/svg" version="1.1" viewBox="0 0 195.25 199.73">
  <defs>
    <style>
      .cls-1 {
        stroke: #231f20;
      }

      .cls-1, .cls-2, .cls-3 {
        fill: #fff;
      }

      .cls-1, .cls-3, .cls-4, .cls-5 {
        display: none;
      }

      .cls-1, .cls-6 {
        stroke-miterlimit: 10;
        stroke-width: 2px;
      }

      .cls-4 {
        fill: #231f20;
      }

      .cls-7, .cls-6 {
        fill: #08090b;
      }

      .cls-5 {
        fill: #d1d3d4;
      }

      .cls-6 {
        stroke: #fff;
      }
    </style>
  </defs>
  <!-- Generator: Adobe Illustrator 28.6.0, SVG Export Plug-In . SVG Version: 1.2.0 Build 709)  -->
  <g>
    <g id="Layer_1">
      <rect class="cls-5" x="-586.92" y="248.37" width="306" height="279.11"/>
      <rect class="cls-5" x="-281.11" y="247.54" width="306" height="279.11"/>
      <path class="cls-6" d="M63.88,26.3h-24.46v141.38c19.02,0,34.44-15.42,34.44-34.44v-60.28c-.39-.16-.78-.31-1.18-.46.43.09.84.09,1.18,0v-3.56s-.01,0,0-.01V29.24c-2.93-1.89-6.39-2.94-9.98-2.94ZM131.45,154.18v9.93c2.67,1.29,5.53,2.47,8.61,3.52h.05c-3.32-4.21-6.16-8.72-8.66-13.45ZM132.24,53.45c-.1.42-.18.86-.26,1.29-.08.46-.15.92-.21,1.38-.2,1.51-.31,3.05-.31,4.62v53.17-.02,23.41c5.14,12.63,10.83,22.52,19.65,30.38h14.78V26.3c-16.51,0-30.31,11.63-33.65,27.15h0Z"/>
      <path class="cls-7" d="M179.28,182.9c-12.23-4.03-21.18-8.99-28.17-15.22-8.82-7.86-14.51-17.75-19.66-30.38-1.5-3.66-2.95-7.55-4.42-11.69-8.47-23.84-15.09-45.27-39-62.44,25.17,23.62,27.75,61.44,43.42,91.01,2.5,4.73,5.34,9.24,8.66,13.45q2.21,2.81,0,.02c-3.31-4.19-.03,0-.05-.02h0c-3.08-1.05-5.94-2.23-8.61-3.52-26.34-12.74-33.92-36.53-42.32-57.59-3.33-8.36-8.6-17.15-15.27-24.45-3.83-4.2-8.12-7.9-12.78-10.75,4.28.05,8.83,1.08,12.78,2.71,2.39.99,4.56,2.19,6.32,3.53-.73-2.95-3-6.46-6.32-10.13-7.77-8.57-21.28-18.05-34.44-23.48-7.91-3.26-15.69-5.06-22.02-4.32,4.78-11.04,21.4-23.84,41.45-22.38,23.81,1.73,51.44,24.28,57.62,40.66,3.83-9.76-7.1-23.23-7.1-23.23,9.52,5.9,16.89,12.74,22.61,20.06,21.56,27.55,19.8,61.88,21.4,78.39.08.8,1.15,1,1.51.29,3.22-6.32,8.74-17.96,10.31-22.31.25.37.47.76.68,1.16,4.84,9.14.75,24.73,0,39.41-.14,2.72-.17,5.4,0,8,.61,9.56,3.8,18.07,13.39,23.22h.01Z"/>
      <path class="cls-2" d="M166.89,159.61c-.15-2.32-.15-4.9,0-7.88.21-4.12.69-8.36,1.15-12.46,1.21-10.61,2.35-20.64-1.26-27.46-.27-.51-.5-.91-.74-1.26l-.15-.22-.95-1.41-.67,1.85c-1.23,3.42-5.03,11.6-8.17,18.02-.49,1.01-2,.7-2.07-.42-.08-1.33-.16-2.73-.24-4.19-1.04-18.54-2.61-46.55-21.01-70.06-.18-.22-.35-.45-.53-.67-6.07-7.59-13.58-14.19-22.34-19.62l-5.03-3.12,3.72,4.6c.08.1,5.85,7.3,7.35,14.73.24,1.17-1.35,1.79-1.99.79-10.11-15.78-34.28-33.07-55.03-34.58-19.46-1.43-37.18,10.83-42.44,22.98l-.69,1.59,1.73-.2c5.71-.66,13.15.81,21.52,4.25.13.05.25.1.38.16,12.34,5.17,25.84,14.4,33.7,23.07.25.28.5.56.74.83h0l.03.04c.95,1.11,1.27,2.38.69,3.09-.18.22-.43.37-.72.44-.34.09-.75.09-1.18,0-.02-.01-.05-.02-.08-.02-.23-.08-.46-.16-.69-.24-3.57-1.21-7.34-1.88-10.82-1.92l-3.63-.04,3.1,1.89c4.38,2.69,8.61,6.24,12.56,10.58.25.27.5.55.74.83,5.94,6.69,11,14.92,14.34,23.31.64,1.59,1.27,3.2,1.9,4.82,7.6,19.38,16.22,41.35,40.92,53.3,2.73,1.32,5.63,2.51,8.62,3.53.05.02.1.04.15.07l5.37,2.88-4.25-4.46v-.02c-3.14-3.97-5.94-8.31-8.58-13.3-5.71-10.78-9.75-22.9-13.66-34.63-3.89-11.68-7.86-23.59-13.57-34.49-.63-1.2,1.07-2.26,1.85-1.15,8.26,11.69,12.85,24.69,17.87,38.9l1.27,3.6c1.64,4.63,3.05,8.35,4.43,11.73,5.84,14.31,11.8,23.5,19.93,30.75,7.11,6.35,15.89,11.16,27.55,15.1.54.18,1.14-.08,1.37-.61h0c.22-.51,0-1.1-.47-1.38-7.51-4.38-11.33-11.37-12.01-21.93h0ZM152.64,167.68c-.29-.25-.58-.5-.86-.75-7.89-7.02-13.69-16-19.4-30.01-.31-.75-.62-1.51-.93-2.3-1.08-2.74-2.21-5.77-3.48-9.34l-1.27-3.59c-7.69-21.77-14.95-42.34-37.26-58.73-.46-.34-1.11-.26-1.47.18-.35.43-.31,1.05.09,1.44,15.25,14.73,22.09,35.27,28.71,55.14,3.94,11.8,8.01,24,13.8,34.93.29.55.59,1.1.88,1.64,1.21,2.19,2.45,4.26,3.75,6.23.6.91-.35,2.05-1.35,1.61-.66-.3-1.32-.6-1.96-.91-.15-.07-.3-.14-.44-.22-23.66-11.65-31.71-32.16-39.49-52.01-.63-1.62-1.26-3.23-1.9-4.83-3.57-8.96-9.06-17.75-15.46-24.75-.23-.25-.48-.51-.74-.76-1.94-1.92-4.69-3.97-7.25-5.79-1.01-.72-.24-2.3.95-1.94,2.25.68,4.5,1.46,5.93,2.04.13.05.26.11.38.16,1.85.81,3.56,1.73,4.98,2.71.23.16.5.24.77.24s.54-.08.77-.23c.48-.32.68-.91.5-1.45-.94-2.82-3.05-6.05-6.28-9.62-.24-.27-.49-.54-.74-.8-8.31-8.84-21.55-17.78-34.06-22.93-.13-.05-.25-.1-.38-.15-6.88-2.8-13.18-4.3-18.49-4.4-.85-.02-1.36-.94-.91-1.66,6.46-10.36,21.91-19.79,38.77-18.57,23.07,1.67,50.49,23.4,56.75,40.01l.92,2.43.95-2.41c1.99-5.06.33-10.92-1.91-15.62-.49-1.03.76-2.03,1.66-1.33,5.32,4.18,10.02,8.87,14.04,14.02.2.25.39.51.58.76,17.47,22.86,19,50.08,20.01,68.17.26,4.56.48,8.5.92,11.59l.43,3.02,1.44-2.69c2.38-4.43,8.22-16.5,10.79-22.75.19.42.37.86.53,1.31,2.22,6.24,1.21,15.04.17,24.28-.06.49-.11.97-.17,1.46-.41,3.66-.81,7.42-1,11.12-.16,3.05-.16,5.71,0,8.11.16,2.51.49,4.83,1,6.97.83,3.58,2.16,6.67,4,9.32.64.93-.33,2.1-1.35,1.63-6.2-2.85-11.4-6.12-15.9-9.98h-.02Z"/>
      <path class="cls-7" d="M74.58,72.03c-.18.23-.43.39-.72.46-.34.09-.75.09-1.18,0-.02,0-.05,0-.08-.02-.23-.08-.46-.17-.69-.25-.44-.2-.89-.49-1.32-.86-1.49-1.28-2.13-3.06-1.41-3.97.71-.91,1.59-1.94,3.99.66.25.22.48.45.69.69h0l.03.04c.95,1.17,1.27,2.5.69,3.25Z"/>
      <path class="cls-1" d="M400.18,26.3h-24.46v141.38c19.02,0,34.44-15.42,34.44-34.44v-60.28c-.39-.16-.78-.31-1.18-.46.43.09.84.09,1.18,0v-3.56s-.01,0,0-.01V29.24c-2.93-1.89-6.39-2.94-9.98-2.94ZM467.75,154.18v9.93c2.67,1.29,5.53,2.47,8.61,3.52h.05c-3.32-4.21-6.16-8.72-8.66-13.45h0ZM468.54,53.45c-.1.42-.18.86-.26,1.29-.08.46-.15.92-.21,1.38-.2,1.51-.31,3.05-.31,4.62v53.17-.02,23.41c5.14,12.63,10.83,22.52,19.65,30.38h14.78V26.3c-16.51,0-30.31,11.63-33.65,27.15Z"/>
      <path class="cls-3" d="M515.58,182.9c-12.23-4.03-21.18-8.99-28.17-15.22-8.82-7.86-14.51-17.75-19.66-30.38-1.5-3.66-2.95-7.55-4.42-11.69-8.47-23.84-15.09-45.27-39-62.44,25.17,23.62,27.75,61.44,43.42,91.01,2.5,4.73,5.34,9.24,8.66,13.45q2.21,2.81.01.02c-3.31-4.19-.03,0-.05-.02h-.01c-3.08-1.05-5.94-2.23-8.61-3.52-26.34-12.74-33.92-36.53-42.32-57.59-3.33-8.36-8.6-17.15-15.27-24.45-3.83-4.2-8.12-7.9-12.78-10.75,4.28.05,8.83,1.08,12.78,2.71,2.39.99,4.56,2.19,6.32,3.53-.73-2.95-3-6.46-6.32-10.13-7.77-8.57-21.28-18.05-34.44-23.48-7.91-3.26-15.69-5.06-22.02-4.32,4.78-11.04,21.4-23.84,41.45-22.38,23.81,1.73,51.44,24.28,57.62,40.66,3.83-9.76-7.1-23.23-7.1-23.23,9.52,5.9,16.89,12.74,22.61,20.06,21.56,27.55,19.8,61.88,21.4,78.39.08.8,1.15,1,1.51.29,3.22-6.32,8.74-17.96,10.31-22.31.25.37.47.76.68,1.16,4.84,9.14.75,24.73,0,39.41-.14,2.72-.17,5.4,0,8,.61,9.56,3.8,18.07,13.39,23.22h.01Z"/>
      <path class="cls-4" d="M503.19,159.61c-.15-2.32-.15-4.9,0-7.88.21-4.12.69-8.36,1.15-12.46,1.21-10.61,2.35-20.64-1.26-27.46-.27-.51-.5-.91-.74-1.26l-.15-.22-.95-1.41-.67,1.85c-1.23,3.42-5.03,11.6-8.17,18.02-.49,1.01-2,.7-2.07-.42-.08-1.33-.16-2.73-.24-4.19-1.04-18.54-2.61-46.55-21.01-70.06-.18-.22-.35-.45-.53-.67-6.07-7.59-13.58-14.19-22.34-19.62l-5.03-3.12,3.72,4.6c.08.1,5.85,7.3,7.35,14.73.24,1.17-1.35,1.79-1.99.79-10.11-15.78-34.28-33.07-55.03-34.58-19.46-1.43-37.18,10.83-42.44,22.98l-.69,1.59,1.73-.2c5.71-.66,13.15.81,21.52,4.25.13.05.25.1.38.16,12.34,5.17,25.84,14.4,33.7,23.07.25.28.5.56.74.83h0l.03.04c.95,1.11,1.27,2.38.69,3.09-.18.22-.43.37-.72.44-.34.09-.75.09-1.18,0-.02-.01-.05-.02-.08-.02-.23-.08-.46-.16-.69-.24-3.57-1.21-7.34-1.88-10.82-1.92l-3.63-.04,3.1,1.89c4.38,2.69,8.61,6.24,12.56,10.58.25.27.5.55.74.83,5.94,6.69,11,14.92,14.34,23.31.64,1.59,1.27,3.2,1.9,4.82,7.6,19.38,16.22,41.35,40.92,53.3,2.73,1.32,5.63,2.51,8.62,3.53.05.02.1.04.15.07l5.37,2.88-4.25-4.46v-.02c-3.14-3.97-5.94-8.31-8.58-13.3-5.71-10.78-9.75-22.9-13.66-34.63-3.89-11.68-7.86-23.59-13.57-34.49-.63-1.2,1.07-2.26,1.85-1.15,8.26,11.69,12.85,24.69,17.87,38.9l1.27,3.6c1.64,4.63,3.05,8.35,4.43,11.73,5.84,14.31,11.8,23.5,19.93,30.75,7.11,6.35,15.89,11.16,27.55,15.1.54.18,1.14-.08,1.37-.61h0c.22-.51,0-1.1-.47-1.38-7.51-4.38-11.33-11.37-12.01-21.93h0ZM488.94,167.68c-.29-.25-.58-.5-.86-.75-7.89-7.02-13.69-16-19.4-30.01-.31-.75-.62-1.51-.93-2.3-1.08-2.74-2.21-5.77-3.48-9.34l-1.27-3.59c-7.69-21.77-14.95-42.34-37.26-58.73-.46-.34-1.11-.26-1.47.18-.35.43-.31,1.05.09,1.44,15.25,14.73,22.09,35.27,28.71,55.14,3.94,11.8,8.01,24,13.8,34.93.29.55.59,1.1.88,1.64,1.21,2.19,2.45,4.26,3.75,6.23.6.91-.35,2.05-1.35,1.61-.66-.3-1.32-.6-1.96-.91-.15-.07-.3-.14-.44-.22-23.66-11.65-31.71-32.16-39.49-52.01-.63-1.62-1.26-3.23-1.9-4.83-3.57-8.96-9.06-17.75-15.46-24.75-.23-.25-.48-.51-.74-.76-1.94-1.92-4.69-3.97-7.25-5.79-1.01-.72-.24-2.3.95-1.94,2.25.68,4.5,1.46,5.93,2.04.13.05.26.11.38.16,1.85.81,3.56,1.73,4.98,2.71.23.16.5.24.77.24s.54-.08.77-.23c.48-.32.68-.91.5-1.45-.94-2.82-3.05-6.05-6.28-9.62-.24-.27-.49-.54-.74-.8-8.31-8.84-21.55-17.78-34.06-22.93-.13-.05-.25-.1-.38-.15-6.88-2.8-13.18-4.3-18.49-4.4-.85-.02-1.36-.94-.91-1.66,6.46-10.36,21.91-19.79,38.77-18.57,23.07,1.67,50.49,23.4,56.75,40.01l.92,2.43.95-2.41c1.99-5.06.33-10.92-1.91-15.62-.49-1.03.76-2.03,1.66-1.33,5.32,4.18,10.02,8.87,14.04,14.02.2.25.39.51.58.76,17.47,22.86,19,50.08,20.01,68.17.26,4.56.48,8.5.92,11.59l.43,3.02,1.44-2.69c2.38-4.43,8.22-16.5,10.79-22.75.19.42.37.86.53,1.31,2.22,6.24,1.21,15.04.17,24.28-.06.49-.11.97-.17,1.46-.41,3.66-.81,7.42-1,11.12-.16,3.05-.16,5.71,0,8.11.16,2.51.49,4.83,1,6.97.83,3.58,2.16,6.67,4,9.32.64.93-.33,2.1-1.35,1.63-6.2-2.85-11.4-6.12-15.9-9.98h-.02Z"/>
      <path class="cls-3" d="M410.81,72.22c-.2.19-.47.31-.77.35-.36.05-.78.02-1.21-.11-.02,0-.05-.01-.08-.03-.23-.1-.46-.19-.69-.29-.44-.22-.87-.52-1.29-.88-1.43-1.27-1.95-2.91-1.14-3.65.8-.75,2.61-.33,4.04.95.24.22.46.44.65.68h0l.03.04c.88,1.12,1.11,2.33.45,2.95h0Z"/>
      <path class="cls-3" d="M409.51,68.21c1.1,1.22,1.65,2.47,1.65,2.78,0,.28-1.08-1.02-2.19-2.32s-1.88-2.45-1.73-2.58,1.05.76,2.27,2.12h0Z"/>
    </g>
  </g>
</svg>